# xmcd
#
# Track frame offsets:
#	150
#	13442
#	27036
#	41405
#	52333
#	67722
#	87727
#	101130
#	115284
#	137588
#	151661
#	166296
#	182078
#	203481
#	223268
#	255132
#	274394
#	290366
#
# Disc length: 4085 seconds
#
# Revision: 1
# Processed by: cddbd v1.5.2PL0 Copyright (c) Steve Scherf et al.
# Submitted via: EZCDAudioConverter 7.0.0.1
#
DISCID=020ff312
DTITLE=Emmylou Harris and The Nash Ramblers - At the Ryman (Remaster)
DYEAR=2017
DGENRE=Country
TTITLE0=Emmylou Harris - Guitar Town (Live)
TTITLE1=Emmylou Harris - Half As Much (Live)
TTITLE2=Emmylou Harris - Cattle Call (Live)
TTITLE3=Emmylou Harris - Guess Things Happen That Way (Live)
TTITLE4=Emmylou Harris - Hard Times (Live)
TTITLE5=Emmylou Harris - Mansion on the Hill (Live)
TTITLE6=Emmylou Harris - Scotland (Live)
TTITLE7=Emmylou Harris - Montana Cowgirl (Live)
TTITLE8=Emmylou Harris - Like Strangers (Live)
TTITLE9=Emmylou Harris - Lodi (Live)
TTITLE10=Emmylou Harris - Calling My Children Home (Live)
TTITLE11=Emmylou Harris - If I Could Be There (Live)
TTITLE12=Emmylou Harris - Walls of Time (Live)
TTITLE13=Emmylou Harris - Get Up John (Live)
TTITLE14=Emmylou Harris - It's a Hard Life Wherever You go/Abraham, Martin and
TTITLE14=John (Live)
TTITLE15=Emmylou Harris - Smoke Along the Track (Live)
TTITLE16=Emmylou Harris and The Nash Ramblers - Rollin' and Ramblin' (The Death 
TTITLE16=of Hank Williams) (Live)
TTITLE17=Emmylou Harris and The Nash Ramblers - The Nash Ramble (Live)
EXTD=
EXTT0=
EXTT1=
EXTT2=
EXTT3=
EXTT4=
EXTT5=
EXTT6=
EXTT7=
EXTT8=
EXTT9=
EXTT10=
EXTT11=
EXTT12=
EXTT13=
EXTT14=
EXTT15=
EXTT16=
EXTT17=
PLAYORDER=
